<?xml version="1.0" encoding="UTF-8"?>
<svg width="738px" height="90px" viewBox="0 0 738 90" version="1.1" xmlns="http://www.w3.org/2000/svg" xmlns:xlink="http://www.w3.org/1999/xlink">
    <title>Darwinia-Text</title>
    <g id="Darwinia-Text" stroke="none" stroke-width="1" fill="none" fill-rule="evenodd">
        <g id="DARWINIA-白" transform="translate(-0, 0)" fill="#FF0083">
            <path d="M43.1945973,0 C49.2246123,0 54.024012,4.80164159 54.024012,10.8344733 C54.024012,15.5129959 51.0705353,19.4528044 46.8864432,21.0533516 L46.8864432,77.0725034 C54.6393197,76.7031464 61.7768884,75.3488372 68.176088,73.0095759 L68.176088,30.0410397 C63.991996,28.5636115 61.0385193,24.500684 61.0385193,19.8221614 C61.0385193,13.7893297 65.837919,8.9876881 71.867934,8.9876881 C77.897949,8.9876881 82.6973487,13.7893297 82.6973487,19.8221614 C82.6973487,24.500684 79.7438719,28.4404925 75.5597799,30.0410397 L75.5597799,69.6853625 C82.6973487,65.8686731 88.3581791,60.6976744 92.1730865,54.2954856 C89.5887944,51.9562244 87.9889945,48.6320109 87.9889945,44.9384405 C87.9889945,37.9206566 93.6498249,32.380301 100.541271,32.380301 C101.156578,32.380301 101.648824,32.380301 102.264132,32.50342 C111.862931,15.7592339 132.414207,5.66347469 157.026513,5.41723666 L158.011006,5.41723666 L197.513757,5.41723666 C199.605803,5.41723666 201.205603,7.01778386 201.205603,9.11080711 C201.205603,11.0807114 199.728864,12.6812585 197.75988,12.8043776 L197.513757,12.8043776 L190.376188,12.8043776 L190.376188,68.9466484 C194.56028,70.4240766 197.513757,74.4870041 197.513757,79.1655267 C197.513757,85.1983584 192.714357,90 186.684342,90 C180.654327,90 175.854927,85.1983584 175.854927,79.1655267 C175.854927,74.4870041 178.808404,70.5471956 182.992496,68.9466484 L182.992496,12.6812585 L161.702851,12.6812585 L161.702851,68.8235294 C165.886943,70.3009576 168.84042,74.3638851 168.84042,79.0424077 C168.84042,85.0752394 164.041021,89.876881 158.011006,89.876881 C151.98099,89.876881 147.181591,85.0752394 147.181591,79.0424077 C147.181591,74.3638851 150.135068,70.4240766 154.31916,68.8235294 L154.31916,12.8043776 C146.566283,13.1737346 139.428714,14.5280438 133.029515,16.8673051 L133.029515,59.8358413 C137.213607,61.3132695 140.167084,65.376197 140.167084,70.0547196 C140.167084,76.0875513 135.367684,80.8891929 129.337669,80.8891929 C123.307654,80.8891929 118.508254,76.0875513 118.508254,70.0547196 C118.508254,65.376197 121.461731,61.4363885 125.645823,59.8358413 L125.645823,20.1915185 C118.508254,24.0082079 112.847424,29.1792066 109.032516,35.5813953 C111.616808,37.9206566 113.216608,41.24487 113.216608,44.9384405 C113.216608,51.9562244 107.555778,57.49658 100.664332,57.49658 C100.049025,57.49658 99.5567784,57.49658 98.9414707,57.373461 C89.3426713,74.1176471 68.7913957,84.2134063 44.1790895,84.4596443 L43.1945973,84.4596443 L3.69184592,84.4596443 C1.5997999,84.4596443 0,82.8590971 0,80.7660739 C0,78.7961696 1.47673837,77.1956224 3.44572286,77.0725034 L3.69184592,77.0725034 L10.8294147,77.0725034 L10.8294147,21.0533516 C6.64532266,19.4528044 3.69184592,15.5129959 3.69184592,10.8344733 C3.69184592,4.80164159 8.49124562,0 14.5212606,0 C20.5512756,0 25.3506753,4.80164159 25.3506753,10.8344733 C25.3506753,15.5129959 22.3971986,19.4528044 18.2131066,21.0533516 L18.2131066,77.1956224 L39.5027514,77.1956224 L39.5027514,21.0533516 C35.3186593,19.5759234 32.3651826,15.5129959 32.3651826,10.8344733 C32.3651826,4.80164159 37.1645823,0 43.1945973,0 L43.1945973,0 Z M274.550275,15.7592339 C291.409705,15.7592339 304.085043,27.7017784 304.085043,44.8153215 C304.085043,60.8207934 290.917459,73.625171 275.042521,73.871409 L274.550275,73.871409 L249.076538,73.871409 L249.076538,15.7592339 L274.550275,15.7592339 Z M347.156578,15.7592339 L372.015008,73.871409 L362.785393,73.871409 L342.972486,26.5937073 L323.405703,73.871409 L314.053027,73.871409 L338.911456,15.7592339 L347.156578,15.7592339 Z M416.071036,15.7592339 C426.162081,15.7592339 432.807404,23.2694938 432.807404,32.380301 C432.807404,39.2749658 428.869435,45.4309166 422.470235,47.8932969 L422.101051,48.0164159 L432.807404,73.871409 L423.085543,73.871409 L412.748374,49.001368 L401.918959,49.001368 L401.918959,40.629275 L415.086543,40.629275 C420.009005,40.629275 423.331666,37.3050616 423.331666,32.380301 C423.331666,27.4555404 420.009005,24.1313269 415.086543,24.1313269 L391.335668,24.1313269 L391.335668,73.871409 L381.982991,73.871409 L381.982991,15.7592339 L416.071036,15.7592339 Z M452.62031,15.7592339 L471.817909,62.5444596 L479.447724,42.7222982 L468.249125,15.7592339 L478.34017,15.7592339 L496.676338,62.5444596 L515.627814,15.7592339 L525.472736,15.7592339 L500.737369,73.871409 L492.492246,73.871409 L484.370185,54.0492476 L475.755878,73.871409 L467.510755,73.871409 L442.652326,15.7592339 L452.62031,15.7592339 Z M541.593797,73.871409 L550.946473,73.871409 L550.946473,15.7592339 L541.593797,15.7592339 L541.593797,73.871409 Z M581.096548,15.7592339 L622.937469,59.9589603 L622.937469,15.7592339 L632.290145,15.7592339 L632.290145,73.871409 L624.291146,73.871409 L582.450225,29.6716826 L582.450225,73.871409 L573.097549,73.871409 L573.097549,15.7592339 L581.096548,15.7592339 Z M654.441221,73.871409 L663.793897,73.871409 L663.793897,15.7592339 L654.441221,15.7592339 L654.441221,73.871409 Z M713.018509,15.7592339 L738,73.871409 L728.770385,73.871409 L708.957479,26.5937073 L689.267634,73.871409 L679.914957,73.871409 L704.773387,15.7592339 L713.018509,15.7592339 Z M274.550275,24.1313269 L258.429215,24.1313269 L258.429215,65.622435 L274.550275,65.622435 C285.994997,65.622435 294.609305,56.5116279 294.609305,44.8153215 C294.609305,33.119015 286.118059,24.1313269 274.550275,24.1313269 L274.550275,24.1313269 Z" id="_x31_"></path>
        </g>
    </g>
</svg>